<svg width="20" height="20" viewBox="0 0 20 20" fill="none" xmlns="http://www.w3.org/2000/svg">
<path d="M14.4194 17.5131C16.3422 15.5903 17.5314 12.9341 17.5314 10.0001C17.5314 7.06606 16.3422 4.40981 14.4194 2.48706L13.5355 3.37094C15.2321 5.06749 16.2814 7.41124 16.2814 10.0001C16.2814 12.5889 15.2321 14.9327 13.5355 16.6292L14.4194 17.5131Z" fill="black"/>
<path d="M12.6517 15.7453C14.122 14.275 15.0314 12.2437 15.0314 10.0001C15.0314 7.75641 14.122 5.72516 12.6517 4.25483L11.7678 5.13871C13.0119 6.38284 13.7814 8.10159 13.7814 10.0001C13.7814 11.8985 13.0119 13.6173 11.7678 14.8614L12.6517 15.7453Z" fill="black"/>
<path d="M12.5314 10.0001C12.5314 11.5534 11.9018 12.9596 10.8839 13.9775L10 13.0937C10.7917 12.3019 11.2814 11.2082 11.2814 10.0001C11.2814 8.79195 10.7917 7.6982 10 6.90648L10.8839 6.02259C11.9018 7.04052 12.5314 8.44677 12.5314 10.0001Z" fill="black"/>
<path d="M8.75 5.00004C8.75 4.75978 8.61228 4.5408 8.39574 4.43672C8.1792 4.33265 7.92217 4.36191 7.73457 4.51199L4.78076 6.87504H1.875C1.52982 6.87504 1.25 7.15486 1.25 7.50004V12.5C1.25 12.8452 1.52982 13.125 1.875 13.125H4.78076L7.73457 15.4881C7.92217 15.6382 8.1792 15.6674 8.39574 15.5634C8.61228 15.4593 8.75 15.2403 8.75 15V5.00004ZM5.39043 7.98808L7.5 6.30043V13.6996L5.39043 12.012C5.27961 11.9233 5.14192 11.875 5 11.875H2.5V8.12504H5C5.14192 8.12504 5.27961 8.07674 5.39043 7.98808Z" fill="black"/>
</svg>
