<svg width="20" height="20" viewBox="0 0 20 20" fill="none" xmlns="http://www.w3.org/2000/svg">
<path d="M8.39574 4.43669C8.61228 4.54077 8.75 4.75975 8.75 5.00001V15C8.75 15.2403 8.61228 15.4592 8.39574 15.5633C8.1792 15.6674 7.92217 15.6381 7.73457 15.488L4.78076 13.125H1.875C1.52982 13.125 1.25 12.8452 1.25 12.5V7.50001C1.25 7.15483 1.52982 6.87501 1.875 6.87501H4.78076L7.73457 4.51196C7.92217 4.36188 8.1792 4.33262 8.39574 4.43669ZM7.5 6.3004L5.39043 7.98805C5.27961 8.07671 5.14192 8.12501 5 8.12501H2.5V11.875H5C5.14192 11.875 5.27961 11.9233 5.39043 12.012L7.5 13.6996V6.3004Z" fill="black"/>
<path d="M17.3169 7.05806C17.561 7.30214 17.561 7.69786 17.3169 7.94194L15.2589 10L17.3169 12.0581C17.561 12.3021 17.561 12.6979 17.3169 12.9419C17.0729 13.186 16.6771 13.186 16.4331 12.9419L14.375 10.8839L12.3169 12.9419C12.0729 13.186 11.6771 13.186 11.4331 12.9419C11.189 12.6979 11.189 12.3021 11.4331 12.0581L13.4911 10L11.4331 7.94194C11.189 7.69786 11.189 7.30214 11.4331 7.05806C11.6771 6.81398 12.0729 6.81398 12.3169 7.05806L14.375 9.11612L16.4331 7.05806C16.6771 6.81398 17.0729 6.81398 17.3169 7.05806Z" fill="black"/>
</svg>
