<svg width="40" height="40" viewBox="0 0 40 40" fill="none" xmlns="http://www.w3.org/2000/svg">
<path fill-rule="evenodd" clip-rule="evenodd" d="M20.8839 4.11612C21.372 4.60427 21.372 5.39573 20.8839 5.88388L6.76777 20L20.8839 34.1161C21.372 34.6043 21.372 35.3957 20.8839 35.8839C20.3957 36.372 19.6043 36.372 19.1161 35.8839L4.11612 20.8839C3.62796 20.3957 3.62796 19.6043 4.11612 19.1161L19.1161 4.11612C19.6043 3.62796 20.3957 3.62796 20.8839 4.11612Z" fill="black"/>
<path fill-rule="evenodd" clip-rule="evenodd" d="M30.8839 4.11612C31.372 4.60427 31.372 5.39573 30.8839 5.88388L16.7678 20L30.8839 34.1161C31.372 34.6043 31.372 35.3957 30.8839 35.8839C30.3957 36.372 29.6043 36.372 29.1161 35.8839L14.1161 20.8839C13.628 20.3957 13.628 19.6043 14.1161 19.1161L29.1161 4.11612C29.6043 3.62796 30.3957 3.62796 30.8839 4.11612Z" fill="black"/>
</svg>
